<svg width="40" height="40" viewBox="0 0 40 40" fill="none" xmlns="http://www.w3.org/2000/svg">
<g clip-path="url(#clip0_4_42)">
<path d="M9.33879 14.7235L4.07221 19.9901L9.33879 25.2566L14.6054 19.9901L9.33879 14.7235Z" fill="#D7B399"/>
<path d="M19.9944 4.08541L14.7278 9.35199L19.9944 14.6186L25.261 9.35199L19.9944 4.08541Z" fill="#D7B399"/>
<path d="M19.9914 25.3938L14.7248 30.6604L19.9913 35.927L25.2579 30.6604L19.9914 25.3938Z" fill="#D7B399"/>
<path d="M30.647 14.7266L25.3804 19.9932L30.647 25.2597L35.9136 19.9932L30.647 14.7266Z" fill="#D7B399"/>
<path d="M28.6102 12.6866L23.3436 17.9532L25.3828 19.9923L30.6494 14.7258L28.6102 12.6866Z" fill="#D7B399"/>
<path d="M17.9547 23.3532L12.6881 28.6198L14.7273 30.659L19.9938 25.3924L17.9547 23.3532Z" fill="#D7B399"/>
<path d="M25.2587 9.35299L19.9921 14.6196L22.0313 16.6587L27.2978 11.3921L25.2587 9.35299Z" fill="#D7B399"/>
<path d="M14.6177 20.0053L9.35116 25.2719L11.3903 27.311L16.6569 22.0444L14.6177 20.0053Z" fill="#D7B399"/>
<path d="M11.3788 12.6864L9.33961 14.7256L14.6062 19.9922L16.6453 17.953L11.3788 12.6864Z" fill="#D7B399"/>
<path d="M14.727 9.34953L12.6879 11.3887L17.9544 16.6552L19.9936 14.6161L14.727 9.34953Z" fill="#D7B399"/>
<path d="M25.3796 19.9905L23.3405 22.0296L28.607 27.2962L30.6462 25.257L25.3796 19.9905Z" fill="#D7B399"/>
<path d="M22.046 23.342L20.0069 25.3812L25.2734 30.6477L27.3126 28.6086L22.046 23.342Z" fill="#D7B399"/>
<path d="M27.3029 32.6971L25.2697 30.6639L20 35.9336L14.7303 30.6639L12.6971 32.6971L20 40L27.3029 32.6971Z" fill="#D7B399"/>
<path d="M9.3361 14.7303L7.3029 12.6971L0 20L7.3029 27.3029L9.3361 25.2697L4.06639 20L9.3361 14.7303Z" fill="#D7B399"/>
<path d="M32.6971 12.6971L30.6639 14.7303L35.9336 20L30.6639 25.2697L32.6971 27.3029L40 20L32.6971 12.6971Z" fill="#D7B399"/>
<path d="M25.2697 9.3361L27.3029 7.3029L20 0L12.6971 7.3029L14.7303 9.3361L20 4.06639L25.2697 9.3361Z" fill="#D7B399"/>
</g>
<defs>
<clipPath id="clip0_4_42">
<rect width="40" height="40" fill="white"/>
</clipPath>
</defs>
</svg>
