<svg width="46" height="17" viewBox="0 0 46 17" fill="none" xmlns="http://www.w3.org/2000/svg">
<path d="M0.25 8.5L13 1.13878L13 15.8612L0.25 8.5Z" fill="#D7B399"/>
<path d="M13 1H46V16H13V1Z" fill="#D7B399"/>
<path d="M28.7796 7.756C29.9636 7.756 30.8356 7.992 31.3956 8.464C31.9636 8.936 32.2476 9.568 32.2476 10.36C32.2476 10.872 32.1196 11.34 31.8636 11.764C31.6076 12.18 31.2156 12.516 30.6876 12.772C30.1676 13.02 29.5236 13.144 28.7556 13.144C28.1636 13.144 27.5796 13.068 27.0036 12.916C26.4356 12.756 25.9516 12.532 25.5516 12.244L26.3196 10.756C26.6396 10.996 27.0076 11.184 27.4236 11.32C27.8396 11.448 28.2676 11.512 28.7076 11.512C29.1956 11.512 29.5796 11.416 29.8596 11.224C30.1396 11.032 30.2796 10.764 30.2796 10.42C30.2796 10.06 30.1316 9.788 29.8356 9.604C29.5476 9.42 29.0436 9.328 28.3236 9.328H26.1756L26.6076 4.6H31.7316V6.16H28.2276L28.0956 7.756H28.7796Z" fill="white"/>
</svg>
